<svg xmlns="http://www.w3.org/2000/svg" width="102" height="48" fill="none">
<path fill="#55BB06" d="M31.59 39.193h-2.896l-.016-1.595h2.431c.429 0 .78-.054 1.054-.163.273-.114.477-.276.611-.488.14-.217.21-.48.21-.79 0-.35-.068-.634-.202-.851-.129-.217-.333-.375-.612-.473-.273-.098-.627-.147-1.06-.147h-1.611v9.455h-2.323V32.866h3.934c.655 0 1.241.062 1.757.186.522.124.963.313 1.325.566.36.252.637.573.828.96.191.382.286.836.286 1.363 0 .464-.105.893-.317 1.285-.206.392-.534.712-.983.96-.444.248-1.025.385-1.743.41l-.673.597Zm-.101 4.948h-3.43l.906-1.812h2.524c.408 0 .74-.065.999-.194.258-.134.449-.314.573-.542.124-.227.186-.487.186-.782 0-.33-.057-.617-.17-.86a1.149 1.149 0 0 0-.527-.557c-.243-.134-.563-.201-.96-.201h-2.238l.015-1.595h2.788l.534.627c.687-.01 1.24.111 1.657.364.424.248.73.57.922.968.196.397.294.823.294 1.277 0 .723-.157 1.332-.472 1.828-.315.49-.777.86-1.386 1.107-.604.248-1.343.372-2.215.372ZM43.53 32.866h2.316v7.45c0 .867-.186 1.597-.558 2.191a3.44 3.44 0 0 1-1.525 1.34c-.646.3-1.39.449-2.23.449-.842 0-1.59-.15-2.246-.45a3.488 3.488 0 0 1-1.533-1.339c-.367-.593-.55-1.324-.55-2.191v-7.45h2.323v7.45c0 .506.08.919.24 1.239.16.32.39.555.689.704.305.15.663.225 1.076.225.424 0 .783-.075 1.077-.225.3-.15.526-.384.681-.704.16-.32.24-.733.24-1.24v-7.449Zm10.098 8.325c0-.202-.031-.382-.093-.542a1.024 1.024 0 0 0-.325-.45 2.88 2.88 0 0 0-.674-.41 9.504 9.504 0 0 0-1.123-.418 14.236 14.236 0 0 1-1.456-.558 5.98 5.98 0 0 1-1.208-.72 3.245 3.245 0 0 1-.82-.968c-.197-.366-.295-.792-.295-1.277 0-.47.104-.896.31-1.278.207-.387.496-.718.867-.991a4.12 4.12 0 0 1 1.317-.643 5.959 5.959 0 0 1 1.68-.224c.831 0 1.557.15 2.176.449.62.3 1.1.71 1.44 1.23.346.522.52 1.119.52 1.79h-2.308c0-.33-.07-.62-.21-.868a1.414 1.414 0 0 0-.619-.596c-.274-.144-.62-.217-1.038-.217-.402 0-.738.062-1.006.186-.269.119-.47.282-.604.488a1.2 1.2 0 0 0-.202.681.99.99 0 0 0 .14.52c.098.154.242.299.433.433s.426.26.705.38c.279.118.602.234.968.348.614.186 1.154.395 1.618.627.47.232.863.493 1.178.782.314.29.552.617.712.984.16.366.24.782.24 1.246 0 .49-.096.93-.287 1.317a2.704 2.704 0 0 1-.828.983 3.895 3.895 0 0 1-1.293.612c-.501.14-1.061.209-1.68.209a6.373 6.373 0 0 1-1.65-.217 5.008 5.008 0 0 1-1.48-.674c-.438-.299-.789-.681-1.052-1.146-.264-.464-.395-1.014-.395-1.649h2.33c0 .351.055.648.163.89.109.243.261.44.457.589.202.15.439.258.713.325.278.067.583.1.913.1.403 0 .733-.056.991-.17.264-.113.457-.27.581-.472.13-.201.194-.428.194-.681ZM60 32.866v11.275h-2.316V32.866h2.316Zm11.352 0v11.275H69.03l-4.53-7.558v7.558h-2.323V32.866H64.5l4.537 7.566v-7.566h2.316Zm9.586 9.463v1.812h-6V42.33h6Zm-5.242-9.463v11.275h-2.323V32.866h2.323Zm4.46 4.592v1.766h-5.219v-1.766h5.22Zm.775-4.592v1.82h-5.994v-1.82h5.994Zm7.232 8.325a1.5 1.5 0 0 0-.093-.542 1.022 1.022 0 0 0-.325-.45 2.877 2.877 0 0 0-.674-.41 9.524 9.524 0 0 0-1.122-.418 14.255 14.255 0 0 1-1.457-.558 5.99 5.99 0 0 1-1.207-.72 3.24 3.24 0 0 1-.82-.968c-.197-.366-.295-.792-.295-1.277 0-.47.103-.896.31-1.278.206-.387.495-.718.866-.991a4.129 4.129 0 0 1 1.317-.643 5.96 5.96 0 0 1 1.68-.224c.832 0 1.557.15 2.176.449.62.3 1.1.71 1.44 1.23.346.522.52 1.119.52 1.79h-2.308c0-.33-.07-.62-.21-.868a1.412 1.412 0 0 0-.619-.596c-.273-.144-.62-.217-1.037-.217-.403 0-.739.062-1.007.186a1.34 1.34 0 0 0-.604.488 1.197 1.197 0 0 0-.201.681c0 .192.046.364.139.52.098.154.243.299.434.433.19.134.426.26.705.38.278.118.6.234.967.348.615.186 1.154.395 1.619.627.47.232.862.493 1.176.782.316.29.553.617.713.984.16.366.24.782.24 1.246 0 .49-.095.93-.286 1.317-.191.387-.467.715-.829.983a3.894 3.894 0 0 1-1.293.612c-.501.14-1.06.209-1.68.209a6.368 6.368 0 0 1-1.65-.217 5.008 5.008 0 0 1-1.479-.674 3.39 3.39 0 0 1-1.053-1.146c-.263-.464-.395-1.014-.395-1.649h2.331c0 .351.054.648.162.89.109.243.261.44.457.589.201.15.44.258.713.325.279.067.583.1.914.1.403 0 .733-.056.99-.17.264-.113.458-.27.582-.472.129-.201.193-.428.193-.681Zm9.772 0c0-.202-.03-.382-.093-.542a1.026 1.026 0 0 0-.325-.45 2.888 2.888 0 0 0-.673-.41 9.494 9.494 0 0 0-1.123-.418 14.249 14.249 0 0 1-1.456-.558 5.97 5.97 0 0 1-1.208-.72 3.25 3.25 0 0 1-.82-.968c-.197-.366-.295-.792-.295-1.277 0-.47.103-.896.31-1.278.206-.387.495-.718.867-.991.372-.279.81-.493 1.317-.643a5.956 5.956 0 0 1 1.68-.224c.83 0 1.557.15 2.176.449.62.3 1.1.71 1.44 1.23.346.522.519 1.119.519 1.79h-2.308c0-.33-.07-.62-.209-.868a1.413 1.413 0 0 0-.62-.596c-.273-.144-.619-.217-1.037-.217-.402 0-.738.062-1.007.186-.268.119-.469.282-.604.488a1.202 1.202 0 0 0-.2.681c0 .192.046.364.139.52.098.154.242.299.433.433.19.134.426.26.705.38.279.118.602.234.968.348.614.186 1.153.395 1.618.627.47.232.862.493 1.177.782.315.29.553.617.712.984.161.366.241.782.241 1.246 0 .49-.096.93-.287 1.317-.19.387-.467.715-.828.983a3.9 3.9 0 0 1-1.293.612c-.501.14-1.061.209-1.68.209a6.376 6.376 0 0 1-1.65-.217 5.012 5.012 0 0 1-1.48-.674c-.438-.299-.79-.681-1.053-1.146-.263-.464-.394-1.014-.394-1.649h2.33c0 .351.055.648.163.89.108.243.26.44.457.589.201.15.439.258.712.325.28.067.584.1.914.1.402 0 .733-.056.991-.17.264-.113.457-.27.581-.472.129-.201.193-.428.193-.681Z"/>
<path fill="#272729" d="M41.426 1.327v2.017h3.33V0h-1.998a1.452 1.452 0 0 0-1.332 1.327ZM96.891 13.983c0-5.528-2.774-7.324-7.352-7.324-2.775 0-5.466.884-7.714 2.515l1.249 1.575a.815.815 0 0 0 1.055.194c1.026-.58 3.468-1.603 5.41-1.603 2.858 0 4.69.829 4.69 4.67v.692h-1.332c-4.107 0-12.043.663-12.043 7.324 0 4.23 3.635 6.662 6.687 6.662 4.412 0 5.41-2.046 6.604-3.29 0 1.41 1 2.626 2.774 2.626h3.33v-2.68h-2.664c-.333.054-.61-.167-.666-.498v-.194l-.028-10.669Zm-2.663 4.008c0 3.593-2.58 7.988-6.687 7.988-2.857 0-4.023-1.88-4.023-4.008 0-4.229 7.686-4.671 9.35-4.671H94.2v.691h.028ZM65.482 13.983c0-5.528-2.775-7.324-7.353-7.324-2.775 0-5.466.884-7.713 2.515l1.248 1.575a.814.814 0 0 0 1.054.194c1.027-.58 3.469-1.603 5.411-1.603 2.858 0 4.69.829 4.69 4.67v.692h-1.333c-4.106 0-12.042.663-12.042 7.324 0 4.23 3.635 6.662 6.687 6.662 4.412 0 5.41-2.046 6.604-3.29 0 1.41.999 2.626 2.775 2.626h3.33v-2.68h-2.665a.588.588 0 0 1-.665-.47v-.194l-.028-10.697Zm-2.664 4.008c0 3.593-2.58 7.988-6.687 7.988-2.858 0-4.023-1.88-4.023-4.008 0-4.229 7.686-4.671 9.35-4.671h1.332v.691h.028ZM16.038 13.983c0-5.528-2.775-7.324-7.353-7.324-2.775 0-5.466.884-7.714 2.515l1.249 1.548a.848.848 0 0 0 1.054.193c1.027-.58 3.44-1.603 5.41-1.603 2.859 0 4.69.83 4.69 4.671v.691h-1.332C7.908 14.674 0 15.338 0 22c0 4.229 3.635 6.66 6.687 6.66 4.412 0 5.41-2.044 6.604-3.288 0 1.41.998 2.626 2.774 2.626h3.33v-2.681H16.73a.588.588 0 0 1-.666-.47v-.194l-.027-10.669Zm-2.664 4.008c0 3.593-2.58 7.988-6.687 7.988-2.858 0-3.996-1.88-3.996-4.008 0-4.229 7.686-4.671 9.351-4.671h1.332v.691ZM73.528 6.659V1.325h-2.663v5.334h-4.023v1.327a1.43 1.43 0 0 0 1.332 1.326h2.663v10.67c0 7.103 5.134 7.987 6.688 7.987 1.553 0 1.997-.663 1.997-.663v-2.654s-.555.664-1.998.664c-1.442 0-3.996-.968-3.996-5.335V9.34h4.024a1.875 1.875 0 0 0 1.693-.801 17.369 17.369 0 0 1 1.636-1.852l-7.353-.028ZM44.815 25.316V6.659h-14.04v2.653h3.33l-5.355 14.65-5.356-14.65h2.692V6.66H16.069s.583.774 1.415 1.852c.5.635 1.166.801 1.915.801h1.332l6.687 18.657h2.663l6.687-18.657h5.355v16.004h-1.997a1.452 1.452 0 0 0-1.332 1.326v1.327H48.81v-2.681l-3.995.027Z"/>
</svg>